# xmcd
#
# Track frame offsets: 
#        150
#        23482
#        45105
#        64170
#        133622
#        155756
#        207065
#        238714
#        299552
#
# Disc length: 4308 seconds
#
# Revision: 0
# Processed by: cddbd v1.5.2PL0 Copyright (c) Steve Scherf et al.
# Submitted via: ExactAudioCopy v1.0b1
#
DISCID=7810d209
DTITLE=Rush  - One Hot Night - 1976-05-30  
DYEAR=1900
DGENRE=
TTITLE0=Bastille Day
TTITLE1=Anthem
TTITLE2=Lakeside Park
TTITLE3=2112
TTITLE4=Fly By Night \\ In The Mood
TTITLE5=Bytor And The Snowdog
TTITLE6=In The End
TTITLE7=Working Man, Finding My Way, Drum Solo
TTITLE8=What You're Doing
EXTD=
EXTT0=
EXTT1=
EXTT2=
EXTT3=
EXTT4=
EXTT5=
EXTT6=
EXTT7=
EXTT8=
PLAYORDER=
